<svg xmlns="http://www.w3.org/2000/svg" viewBox="0 0 242.70886 116.35277"><path d="M216.743 116.28c10.332.397 18.54-.94 18.523-.94 0 0 2.236-.576 6.962-.4.645-5.397-7.15-10.952-7.103-10.944.012.002 1.934-1.814 7.584-.756-1.742-4.932-9.28-11.21-9.246-11.203-.01-.003-7.524-4.936-15.59-6.822-19.096-11.94-53.613-30.533-53.064-30.456-.062-.01-9.333-1.446-29.03.167 3.268-5.31 14.055-3.626 14.12-3.618-.272-.037-23.247-8.73-29.532-10.04-8.168-1.528-43.774-21.985-42.433-21.844-.132-.014-15.168.4-34.097 4.967 6.235-9.004 24.43-8.494 24.548-8.482-.22-.02-15.405-5.397-17.493-2.95-2.15 2.44-18.415 5.727-21.587 8.36-1.358.334-24.703-8.178-25.916-17.71C1.81-5.973-.148 6.346.01 8.207c-.01.93 4.768 6.318 11.256 11.616 6.216 5.274 14.14 10.46 14.112 10.46.056.026-4.51 22.012 6.142 33.97 9.357 11.798 51.753 27.85 52.418 27.955-.047-.01-3.468-12.233-4.06-17.417 1.95 5.148 15.098 20.446 15.335 20.485.135.022 17.84 3.62 46.594 12.156 29.126 8.604 64.92 8.5 74.936 8.845zm-262.163-157.133C-55.817-47.04-63.188-57.945-64.3-59.927c-.076-.088-.138-.165-.168-.225-.102-.197-.037-.098.167.225 1.423 1.943 15.195 10.735 21.33 14.564 2.773 1.998 34.324 13.98 75.26 26.934C71.61-5.71 120.313 7.98 120.145 8.005c-15.408-1.95-59.866-13.23-95.463-23.987-36.623-10.906-64.38-21.284-70.103-24.87z"/></svg>