<?xml version="1.0" encoding="UTF-8" standalone="no"?>
<!-- Generator: Adobe Illustrator 18.0.0, SVG Export Plug-In . SVG Version: 6.00 Build 0)  -->

<svg
   xmlns:dc="http://purl.org/dc/elements/1.1/"
   xmlns:cc="http://creativecommons.org/ns#"
   xmlns:rdf="http://www.w3.org/1999/02/22-rdf-syntax-ns#"
   xmlns:svg="http://www.w3.org/2000/svg"
   xmlns="http://www.w3.org/2000/svg"
   xmlns:sodipodi="http://sodipodi.sourceforge.net/DTD/sodipodi-0.dtd"
   xmlns:inkscape="http://www.inkscape.org/namespaces/inkscape"
   version="1.1"
   id="Capa_1"
   x="0px"
   y="0px"
   viewBox="0 0 242.70886 116.35277"
   xml:space="preserve"
   inkscape:version="0.48.4 r9939"
   width="100%"
   height="100%"
   sodipodi:docname="feather24.svg"><metadata
   id="metadata41"><rdf:RDF><cc:Work
       rdf:about=""><dc:format>image/svg+xml</dc:format><dc:type
         rdf:resource="http://purl.org/dc/dcmitype/StillImage" /><dc:title></dc:title></cc:Work></rdf:RDF></metadata><defs
   id="defs39" /><sodipodi:namedview
   pagecolor="#ffffff"
   bordercolor="#666666"
   borderopacity="1"
   objecttolerance="10"
   gridtolerance="10"
   guidetolerance="10"
   inkscape:pageopacity="0"
   inkscape:pageshadow="2"
   inkscape:window-width="640"
   inkscape:window-height="480"
   id="namedview37"
   showgrid="false"
   fit-margin-top="0"
   fit-margin-left="0"
   fit-margin-right="0"
   fit-margin-bottom="0"
   inkscape:zoom="0.97235784"
   inkscape:cx="121.35477"
   inkscape:cy="58.17632"
   inkscape:window-x="1053"
   inkscape:window-y="301"
   inkscape:window-maximized="0"
   inkscape:current-layer="Capa_1" />
<g
   id="g3"
   transform="matrix(0,1,-1,0,242.70887,7.2174485e-4)">
	<path
   d="m 116.278,25.966 c 0.398,-10.332 -0.938,-18.54 -0.939,-18.523 0,-10e-4 -0.576,-2.236 -0.401,-6.962 -5.396,-0.645 -10.951,7.151 -10.943,7.103 C 103.997,7.572 102.181,5.65 103.239,0 98.307,1.741 92.029,9.278 92.036,9.245 92.033,9.256 87.1,16.769 85.214,24.836 73.275,43.931 54.681,78.448 54.758,77.899 c -0.008,0.062 -1.445,9.333 0.168,29.029 -5.311,-3.267 -3.626,-14.054 -3.618,-14.12 -0.036,0.273 -8.729,23.248 -10.038,29.533 -1.529,8.168 -21.986,43.774 -21.845,42.433 -0.014,0.132 0.4,15.168 4.967,34.097 -9.004,-6.235 -8.494,-24.43 -8.482,-24.548 -0.021,0.221 -5.398,15.405 -2.952,17.493 2.441,2.149 5.728,18.415 8.36,21.587 0.335,1.358 -8.177,24.703 -17.71,25.916 -9.581,1.579 2.738,3.538 4.599,3.381 0.931,0.01 6.318,-4.769 11.616,-11.257 5.274,-6.216 10.46,-14.139 10.461,-14.112 0.025,-0.056 22.011,4.51 33.97,-6.142 11.797,-9.357 27.849,-51.753 27.954,-52.418 -0.008,0.047 -12.232,3.468 -17.416,4.061 5.148,-1.95 20.446,-15.099 20.485,-15.336 0.022,-0.135 3.62,-17.839 12.156,-46.594 8.604,-29.126 8.499,-64.92 8.845,-74.936 z M 49.459,187.664 c -6.188,10.397 -17.092,17.768 -19.074,18.881 -0.088,0.075 -0.165,0.137 -0.225,0.167 -0.197,0.102 -0.098,0.037 0.225,-0.167 1.943,-1.424 10.735,-15.196 14.564,-21.331 1.998,-2.773 13.98,-34.324 26.934,-75.259 12.72,-39.321 26.41,-88.025 26.433,-87.857 -1.949,15.408 -13.23,59.866 -23.987,95.463 -10.906,36.623 -21.284,64.381 -24.87,70.103 z"
   id="path5"
   inkscape:connector-curvature="0" />
</g>
<g
   id="g7"
   transform="translate(63.178768,-63.17805)">
</g>
<g
   id="g9"
   transform="translate(63.178768,-63.17805)">
</g>
<g
   id="g11"
   transform="translate(63.178768,-63.17805)">
</g>
<g
   id="g13"
   transform="translate(63.178768,-63.17805)">
</g>
<g
   id="g15"
   transform="translate(63.178768,-63.17805)">
</g>
<g
   id="g17"
   transform="translate(63.178768,-63.17805)">
</g>
<g
   id="g19"
   transform="translate(63.178768,-63.17805)">
</g>
<g
   id="g21"
   transform="translate(63.178768,-63.17805)">
</g>
<g
   id="g23"
   transform="translate(63.178768,-63.17805)">
</g>
<g
   id="g25"
   transform="translate(63.178768,-63.17805)">
</g>
<g
   id="g27"
   transform="translate(63.178768,-63.17805)">
</g>
<g
   id="g29"
   transform="translate(63.178768,-63.17805)">
</g>
<g
   id="g31"
   transform="translate(63.178768,-63.17805)">
</g>
<g
   id="g33"
   transform="translate(63.178768,-63.17805)">
</g>
<g
   id="g35"
   transform="translate(63.178768,-63.17805)">
</g>
</svg>